<?xml version="1.0" encoding="utf-8"?>
<!-- Generator: Adobe Illustrator 16.0.0, SVG Export Plug-In . SVG Version: 6.00 Build 0)  -->
<!DOCTYPE svg PUBLIC "-//W3C//DTD SVG 1.1//EN" "http://www.w3.org/Graphics/SVG/1.1/DTD/svg11.dtd">
<svg version="1.1" id="Capa_1" xmlns="http://www.w3.org/2000/svg" xmlns:xlink="http://www.w3.org/1999/xlink" x="0px" y="0px"
	 width="381.539px" height="66.667px" viewBox="0 0 381.539 66.667" enable-background="new 0 0 381.539 66.667"
	 xml:space="preserve">
<g>
	<path fill="#FFFFFF" d="M236.952,50.086c-0.674,0.293-1.284,0.57-1.829,0.826c-0.545,0.258-1.258,0.525-2.141,0.809
		c-0.748,0.234-1.56,0.432-2.436,0.598s-1.841,0.248-2.895,0.248c-1.985,0-3.789-0.277-5.413-0.838
		c-1.624-0.557-3.035-1.428-4.236-2.618c-1.176-1.164-2.095-2.643-2.757-4.438c-0.662-1.795-0.992-3.881-0.992-6.258
		c0-2.254,0.318-4.27,0.956-6.046c0.637-1.777,1.556-3.278,2.757-4.503c1.164-1.188,2.57-2.095,4.218-2.72
		c1.647-0.625,3.476-0.938,5.486-0.938c1.471,0,2.938,0.177,4.402,0.533c1.464,0.356,3.091,0.981,4.88,1.875v4.319h-0.276
		c-1.507-1.262-3.002-2.181-4.484-2.756c-1.483-0.576-3.069-0.864-4.76-0.864c-1.385,0-2.631,0.223-3.74,0.671
		c-1.109,0.448-2.099,1.143-2.968,2.085c-0.845,0.92-1.504,2.081-1.976,3.484c-0.471,1.403-0.707,3.023-0.707,4.861
		c0,1.924,0.26,3.578,0.781,4.962c0.52,1.385,1.191,2.512,2.012,3.381c0.857,0.907,1.859,1.579,3.005,2.014s2.355,0.652,3.63,0.652
		c1.752,0,3.394-0.3,4.926-0.901c1.532-0.601,2.965-1.501,4.301-2.701h0.257V50.086z"/>
	<path fill="#FFFFFF" d="M257.775,52.068h-3.437v-2.186c-0.306,0.209-0.721,0.5-1.241,0.873c-0.522,0.373-1.027,0.672-1.517,0.891
		c-0.576,0.283-1.238,0.518-1.985,0.707c-0.747,0.191-1.624,0.285-2.628,0.285c-1.85,0-3.418-0.611-4.705-1.836
		c-1.286-1.225-1.93-2.788-1.93-4.688c0-1.556,0.334-2.815,1.002-3.777c0.667-0.962,1.62-1.718,2.858-2.27
		c1.25-0.552,2.75-0.925,4.503-1.122c1.752-0.195,3.633-0.342,5.643-0.441v-0.533c0-0.785-0.138-1.434-0.414-1.949
		c-0.275-0.514-0.671-0.918-1.185-1.213c-0.491-0.282-1.079-0.472-1.765-0.57c-0.687-0.098-1.403-0.146-2.151-0.146
		c-0.907,0-1.917,0.119-3.033,0.358c-1.115,0.239-2.267,0.584-3.455,1.039h-0.184v-3.511c0.673-0.183,1.648-0.386,2.922-0.606
		c1.274-0.221,2.53-0.331,3.767-0.331c1.446,0,2.705,0.119,3.777,0.358c1.072,0.239,2,0.646,2.784,1.223
		c0.773,0.563,1.361,1.292,1.765,2.187c0.405,0.895,0.607,2.004,0.607,3.326V52.068z M254.338,47.016V41.3
		c-1.055,0.062-2.294,0.154-3.722,0.276c-1.428,0.122-2.558,0.3-3.391,0.533c-0.992,0.282-1.795,0.72-2.407,1.314
		c-0.613,0.594-0.919,1.413-0.919,2.453c0,1.177,0.355,2.063,1.066,2.657c0.71,0.594,1.795,0.891,3.253,0.891
		c1.213,0,2.322-0.235,3.327-0.708C252.549,48.245,253.48,47.678,254.338,47.016z"/>
	<path fill="#FFFFFF" d="M277.238,35.309h-0.183c-0.516-0.122-1.014-0.211-1.499-0.267c-0.483-0.056-1.057-0.083-1.718-0.083
		c-1.066,0-2.095,0.236-3.088,0.708c-0.992,0.472-1.948,1.081-2.867,1.828v14.573h-3.455V31.541h3.455v3.032
		c1.373-1.102,2.582-1.883,3.63-2.343c1.047-0.459,2.116-0.689,3.207-0.689c0.6,0,1.035,0.015,1.304,0.046
		c0.27,0.031,0.674,0.088,1.213,0.174V35.309z"/>
	<path fill="#FFFFFF" d="M297.143,49.736c0,3.479-0.79,6.035-2.371,7.662c-1.581,1.631-4.013,2.445-7.296,2.445
		c-1.091,0-2.154-0.076-3.189-0.229c-1.035-0.154-2.056-0.371-3.06-0.654v-3.527h0.184c0.563,0.221,1.458,0.492,2.683,0.818
		c1.226,0.324,2.451,0.486,3.676,0.486c1.177,0,2.151-0.141,2.922-0.424c0.772-0.279,1.373-0.674,1.802-1.176
		c0.429-0.479,0.735-1.055,0.918-1.729c0.184-0.674,0.276-1.426,0.276-2.26v-1.873c-1.042,0.832-2.038,1.455-2.987,1.865
		s-2.16,0.613-3.63,0.613c-2.45,0-4.396-0.883-5.835-2.653c-1.44-1.771-2.16-4.267-2.16-7.49c0-1.765,0.249-3.287,0.746-4.567
		c0.495-1.281,1.172-2.386,2.03-3.317c0.796-0.87,1.765-1.547,2.904-2.032c1.14-0.483,2.273-0.725,3.4-0.725
		c1.188,0,2.185,0.119,2.987,0.358c0.803,0.238,1.651,0.604,2.546,1.093l0.22-0.881h3.235V49.736z M293.688,46.428V35.235
		c-0.919-0.417-1.774-0.714-2.564-0.892c-0.791-0.177-1.579-0.267-2.362-0.267c-1.9,0-3.395,0.638-4.485,1.912
		c-1.091,1.275-1.636,3.125-1.636,5.55c0,2.303,0.405,4.05,1.214,5.238c0.808,1.188,2.15,1.783,4.025,1.783
		c1.004,0,2.012-0.193,3.023-0.579C291.914,47.595,292.842,47.077,293.688,46.428z"/>
	<path fill="#FFFFFF" d="M321.44,41.814c0,3.345-0.858,5.986-2.573,7.922c-1.715,1.936-4.013,2.902-6.893,2.902
		c-2.904,0-5.209-0.967-6.919-2.902c-1.709-1.936-2.564-4.577-2.564-7.922c0-3.344,0.854-5.988,2.564-7.93
		c1.709-1.942,4.015-2.913,6.919-2.913c2.88,0,5.177,0.97,6.893,2.913C320.583,35.826,321.44,38.47,321.44,41.814z M317.875,41.814
		c0-2.659-0.521-4.634-1.563-5.928c-1.041-1.292-2.488-1.939-4.337-1.939c-1.874,0-3.329,0.647-4.365,1.939
		c-1.035,1.294-1.553,3.269-1.553,5.928c0,2.573,0.521,4.525,1.562,5.854c1.042,1.33,2.494,1.994,4.356,1.994
		c1.838,0,3.281-0.658,4.329-1.976C317.351,46.371,317.875,44.412,317.875,41.814z"/>
</g>
<path id="Fill-7" fill="#FFFFFF" d="M40.336,21.772h8.226l7.469,19.259l7.201-19.259h8.47L58.765,51.844h-2.734
	c-1.318,0-3.173-0.123-5.077-5.102S40.336,21.772,40.336,21.772"/>
<g>
	<polygon id="Fill-9" fill="#FFFFFF" points="74.215,51.844 82.319,51.844 82.319,21.772 74.215,21.772 	"/>
</g>
<g>
	<path id="Fill-11" fill="#FFFFFF" d="M82.954,15.083c0.041,2.588-2.024,4.719-4.613,4.76c-2.588,0.04-4.718-2.025-4.759-4.613
		s2.024-4.719,4.612-4.759c0.024-0.001,0.049-0.001,0.073-0.001c2.562-0.026,4.659,2.027,4.687,4.589
		C82.954,15.066,82.954,15.075,82.954,15.083"/>
</g>
<g>
	<path id="Fill-12" fill="#FFFFFF" d="M146.563,51.844h-8.348V31.341c0.068-1.913-1.426-3.52-3.339-3.589
		c-0.46-0.017-0.917,0.059-1.348,0.221c-2.388,0.558-4.627,1.624-6.565,3.125v20.747h-8.348V21.772c0,0,7.322-2.246,7.957,2.856
		c3.017-2.337,6.683-3.685,10.495-3.857c4.88-0.358,9.128,3.307,9.486,8.187c0.003,0.045,0.007,0.091,0.009,0.137V51.844"/>
</g>
<g>
	<path id="Fill-13" fill="#FFFFFF" d="M113.049,46.338V30.791c0-3.491-1.464-10.496-11.374-10.447
		c-9.495,0-13.034,3.979-13.034,3.979l3.173,4.881c0,0,1.513-2.44,7.567-2.44c6.053,0,5.321,5.224,5.321,5.224
		c-16.695-0.27-17.574,6.564-17.574,10.666c-0.042,5.026,4,9.138,9.028,9.179c0.107,0.002,0.214,0,0.321-0.002
		c3.379,0.154,6.703-0.9,9.373-2.979c0.244,2.611,3.27,2.734,3.27,2.734h4.883C113.172,51.536,113.049,46.338,113.049,46.338z
		 M105.092,43.896c-1.671,1.031-3.602,1.564-5.565,1.539c-3.417,0-4.442-2.174-4.442-3.832c0-1.66,1.147-4.222,10.007-3.736V43.896z
		"/>
</g>
<g>
	<path id="Fill-14" fill="#FFFFFF" d="M204.582,46.338V30.791c0-3.491-1.465-10.496-11.375-10.447
		c-9.494,0-13.033,3.979-13.033,3.979l3.172,4.881c0,0,1.514-2.44,7.567-2.44s5.321,5.224,5.321,5.224
		c-16.695-0.27-17.574,6.564-17.574,10.666c-0.044,5.026,3.997,9.138,9.025,9.183c0.132,0,0.264-0.002,0.396-0.006
		c3.379,0.154,6.702-0.9,9.373-2.979c0.244,2.611,3.27,2.734,3.27,2.734h4.883C204.777,51.536,204.582,46.338,204.582,46.338z
		 M196.6,43.896c-1.66,1.035-3.584,1.568-5.54,1.539c-3.417,0-4.442-2.174-4.442-3.832c0-1.66,1.146-4.222,9.982-3.736V43.896z"/>
</g>
<g>
	<path id="Fill-15" fill="#FFFFFF" d="M174.998,29.311c-2.255-1.892-5.139-2.868-8.078-2.734c-5.957,0-8.227,5.712-8.227,10.57
		c-0.006,4.542,3.672,8.23,8.215,8.234c0.257,0.002,0.513-0.01,0.768-0.033c2.549-0.098,5.012-0.947,7.078-2.441l2.148,5.833
		c-3.516,2.098-7.549,3.172-11.643,3.1c-7.884,0.209-14.444-6.011-14.654-13.893c-0.008-0.332-0.006-0.664,0.009-0.994
		c0-11.692,7.835-16.745,15.427-16.672c6.761,0,9.422,2.441,9.422,2.441l-0.586,6.59"/>
</g>
<g>
	<path id="Fill-16" fill="#FFFFFF" d="M29.255,10.081h-6.2L6.872,51.844h8.47l3.417-10.568h14.645L37.7,51.844h8.47L29.255,10.081z
		 M21.517,34.586l4.638-12.569l4.589,12.569H21.517z"/>
</g>
<path id="Fill-1" fill="#FFFFFF" d="M327.609,3.077c4.078,15.28,11.349,29.522,21.333,41.788c0,0-18.428-0.586-24.872-12.888
	C319.238,22.524,320.639,11.083,327.609,3.077"/>
<path id="Fill-3" fill="#FFFFFF" d="M354.971,51.138c6.231,5.916,13.654,10.436,21.772,13.254c0,0-11.472,0.926-18.404-2.441
	c-6.932-3.369-14.133-8.764-18.574-9.154c-4.443-0.391-7.079-0.609-8.251-1.781h23.457"/>
<path id="Fill-5" fill="#FFFFFF" d="M365.223,51.649c-2.808-6.566-16.281-6.785-16.281-6.785s3.662,3.979,6.029,6.273
	C358.397,50.974,361.831,51.146,365.223,51.649"/>
</svg>
