<?xml version="1.0" encoding="utf-8"?>
<!-- Generator: Adobe Illustrator 16.0.0, SVG Export Plug-In . SVG Version: 6.00 Build 0)  -->
<!DOCTYPE svg PUBLIC "-//W3C//DTD SVG 1.1//EN" "http://www.w3.org/Graphics/SVG/1.1/DTD/svg11.dtd">
<svg version="1.1" id="Capa_1" xmlns="http://www.w3.org/2000/svg" xmlns:xlink="http://www.w3.org/1999/xlink" x="0px" y="0px"
	 width="80px" height="80px" viewBox="0 0 80 80" enable-background="new 0 0 80 80" xml:space="preserve">
<linearGradient id="SVGID_1_" gradientUnits="userSpaceOnUse" x1="6.1211" y1="41.2573" x2="75" y2="41.2573">
	<stop  offset="0" style="stop-color:#DA291C"/>
	<stop  offset="1" style="stop-color:#DA291C"/>
</linearGradient>
<path fill-rule="evenodd" clip-rule="evenodd" fill="url(#SVGID_1_)" d="M29.475,37.222c-1.173-1.549-2.267-3.021-3.402-4.463
	c-0.207-0.262-0.571-0.418-0.887-0.572c-4.16-2.031-8.327-4.051-12.487-6.084c-1.838-0.896-1.829-1.57-0.531-3.164
	c1.479-1.814,3.003-2.109,5.22-1.385c6.709,2.191,13.496,4.145,20.236,6.244c0.839,0.262,1.315,0.088,1.833-0.555
	c2.897-3.604,6.36-6.617,10-9.436c1.785-1.382,3.719-2.473,5.994-2.852c2.029-0.34,4.172,0.834,3.411,3.401
	c-0.473,1.596-1.134,3.137-1.735,4.693c-0.181,0.469-0.444,0.906-0.686,1.391c12.863,1.74,18.923,12.609,18.543,21.305
	c-0.494,11.344-8.874,18.609-17.673,19.859c-5.777,0.82-11.044-0.547-15.67-4.102c-4.585-3.523-7.145-8.266-7.964-14.205
	c-0.778,0.684-1.382,1.234-2.008,1.76c-2.021,1.691-4.067,3.354-6.057,5.082c-0.289,0.25-0.479,0.807-0.448,1.201
	c0.233,3.025,0.524,6.047,0.815,9.068c0.096,0.998-0.985,2.893-1.931,3.141c-1.044,0.275-1.606-0.355-2.036-1.234
	c-1.559-3.182-3.564-6.051-6.097-8.545c-2.501-2.463-5.377-4.389-8.469-6.018c-0.63-0.334-1.579-0.471-1.262-1.553
	c0.308-1.053,0.891-1.957,2.08-2.031c1.23-0.078,2.476,0.02,3.711,0.088c2.273,0.123,4.543,0.32,6.817,0.389
	c0.431,0.014,0.988-0.334,1.297-0.684c2.859-3.23,5.676-6.5,8.507-9.758C28.856,37.906,29.125,37.615,29.475,37.222z M54.604,64.009
	c0.399-0.041,1.154-0.115,1.908-0.197c9.911-1.086,17.391-10.18,16.528-20.092c-0.809-9.303-7.806-16.418-17.095-17.33
	c-0.426-0.043-1.002,0.217-1.321,0.527c-2.603,2.535-5.119,5.156-7.759,7.65c-0.652,0.615-0.701,1.068-0.477,1.83
	c1.985,6.734,3.782,13.531,5.984,20.195c0.771,2.328,0.372,3.775-1.272,5.344c-1.427,1.361-2.468,1.332-3.315-0.428
	c-1.541-3.203-3.188-6.361-4.555-9.637c-1.163-2.789-2.744-5.088-5.501-6.443c-0.455-0.223-1.034-0.588-1.422-0.467
	c-0.769,0.242-0.882,0.988-0.817,1.781C36.275,56.308,44.58,63.962,54.604,64.009z"/>
<path fill-rule="evenodd" clip-rule="evenodd" fill="#FFFFFF" d="M54.604,64.009c-10.024-0.047-18.33-7.701-19.114-17.266
	c-0.065-0.793,0.048-1.539,0.817-1.781c0.389-0.121,0.968,0.244,1.422,0.467c2.757,1.355,4.338,3.654,5.501,6.443
	c1.366,3.275,3.014,6.434,4.555,9.637c0.848,1.76,1.889,1.789,3.315,0.428c1.645-1.568,2.043-3.016,1.272-5.344
	c-2.202-6.664-3.999-13.461-5.984-20.195c-0.225-0.762-0.176-1.215,0.477-1.83c2.64-2.494,5.156-5.115,7.759-7.65
	c0.319-0.311,0.896-0.57,1.321-0.527c9.289,0.912,16.286,8.027,17.095,17.33c0.862,9.912-6.617,19.006-16.528,20.092
	C55.759,63.894,55.004,63.968,54.604,64.009z M54.9,37.246c0-1.799,0.001-3.598-0.001-5.396c0-0.801,0.038-1.604-0.034-2.396
	c-0.021-0.234-0.361-0.439-0.555-0.658c-0.19,0.211-0.465,0.396-0.551,0.645c-0.099,0.287-0.037,0.631-0.037,0.951
	c-0.001,4.557,0.018,9.113-0.024,13.672c-0.005,0.539-0.252,1.127-0.533,1.605c-0.482,0.816-0.491,1.533,0.261,2.121
	c0.714,0.561,1.375,0.365,2.022-0.246c0.399-0.379,0.906-0.75,1.426-0.879c3.096-0.768,6.214-1.449,9.313-2.209
	c0.342-0.084,0.608-0.477,0.909-0.725c-0.379-0.133-0.795-0.441-1.13-0.369c-3.196,0.689-6.377,1.451-9.565,2.176
	c-1.24,0.281-1.494,0.066-1.499-1.217C54.895,41.962,54.9,39.603,54.9,37.246z"/>
<linearGradient id="SVGID_2_" gradientUnits="userSpaceOnUse" x1="52.8276" y1="38.4575" x2="67.0967" y2="38.4575">
	<stop  offset="0" style="stop-color:#DA291C"/>
	<stop  offset="1" style="stop-color:#DA291C"/>
</linearGradient>
<path fill-rule="evenodd" clip-rule="evenodd" fill="url(#SVGID_2_)" d="M54.9,37.246c0,2.357-0.006,4.717,0.002,7.074
	c0.005,1.283,0.259,1.498,1.499,1.217c3.188-0.725,6.369-1.486,9.565-2.176c0.335-0.072,0.751,0.236,1.13,0.369
	c-0.301,0.248-0.567,0.641-0.909,0.725c-3.1,0.76-6.218,1.441-9.313,2.209c-0.52,0.129-1.026,0.5-1.426,0.879
	c-0.647,0.611-1.309,0.807-2.022,0.246c-0.752-0.588-0.743-1.305-0.261-2.121c0.281-0.479,0.528-1.066,0.533-1.605
	c0.042-4.559,0.023-9.115,0.024-13.672c0-0.32-0.062-0.664,0.037-0.951c0.086-0.248,0.36-0.434,0.551-0.645
	c0.193,0.219,0.533,0.424,0.555,0.658c0.072,0.793,0.034,1.596,0.034,2.396C54.901,33.648,54.9,35.447,54.9,37.246z"/>
</svg>
