<?xml version="1.0" encoding="utf-8"?>
<!-- Generator: Adobe Illustrator 16.0.0, SVG Export Plug-In . SVG Version: 6.00 Build 0)  -->
<!DOCTYPE svg PUBLIC "-//W3C//DTD SVG 1.1//EN" "http://www.w3.org/Graphics/SVG/1.1/DTD/svg11.dtd">
<svg version="1.1" id="Capa_1" xmlns="http://www.w3.org/2000/svg" xmlns:xlink="http://www.w3.org/1999/xlink" x="0px" y="0px"
	 width="91px" height="91px" viewBox="0 0 91 91" enable-background="new 0 0 91 91" xml:space="preserve">
<linearGradient id="SVGID_1_" gradientUnits="userSpaceOnUse" x1="16.7031" y1="45.4844" x2="71.6104" y2="45.4844">
	<stop  offset="0" style="stop-color:#DA291C"/>
	<stop  offset="1" style="stop-color:#DA291C"/>
</linearGradient>
<path fill-rule="evenodd" clip-rule="evenodd" fill="url(#SVGID_1_)" d="M44.171,85.433c-6.559,0-13.116,0.003-19.674-0.001
	c-4.62-0.003-7.779-3.125-7.785-7.732c-0.013-9.797-0.009-19.594-0.001-29.392c0.003-4.27,2.406-7.086,6.645-7.702
	c0.906-0.132,0.842-0.642,0.842-1.253c-0.003-4.559-0.002-9.118-0.001-13.676c0.003-10.424,7.778-19.151,17.868-20.058
	c10.651-0.958,19.846,6.034,21.715,16.542c0.181,1.016,0.243,2.064,0.248,3.098c0.026,4.678,0.021,9.357,0.003,14.036
	c-0.002,0.762,0.064,1.234,1.043,1.335c3.707,0.386,6.486,3.444,6.503,7.241c0.044,10.077,0.05,20.154-0.002,30.231
	c-0.021,4.124-3.341,7.311-7.488,7.325C57.447,85.449,50.809,85.433,44.171,85.433z M44.044,80.487
	c6.475,0,12.949,0.002,19.425-0.001c2.279-0.001,3.205-0.92,3.205-3.192c0.004-9.553,0.004-19.105,0-28.658
	c0-2.245-0.959-3.208-3.209-3.208c-12.911-0.004-25.821-0.004-38.731,0c-2.152,0.001-3.163,0.976-3.167,3.148
	c-0.018,9.593-0.017,19.186-0.001,28.778c0.003,2.174,1.005,3.13,3.173,3.131C31.173,80.489,37.608,80.487,44.044,80.487z
	 M59.077,40.389c0.041-0.374,0.104-0.684,0.104-0.993c0.007-4.68,0.036-9.36-0.018-14.039c-0.014-1.188-0.188-2.399-0.479-3.552
	c-1.854-7.332-8.644-11.965-16.382-11.236c-6.999,0.66-12.847,6.837-13.116,14.135C29,29.736,29.129,34.781,29.124,39.82
	c0,0.185,0.078,0.37,0.123,0.569C39.209,40.389,49.11,40.389,59.077,40.389z"/>
<path fill-rule="evenodd" clip-rule="evenodd" fill="#FFFFFF" d="M44.044,80.487c-6.436,0-12.871,0.002-19.306-0.002
	c-2.168-0.001-3.169-0.957-3.173-3.131c-0.015-9.593-0.016-19.186,0.001-28.778c0.003-2.173,1.015-3.147,3.167-3.148
	c12.91-0.005,25.82-0.005,38.731,0c2.25,0.001,3.209,0.963,3.209,3.208c0.004,9.553,0.004,19.105,0,28.658
	c0,2.272-0.926,3.191-3.205,3.192C56.993,80.489,50.519,80.487,44.044,80.487z M46.631,58.146c-0.006,0-0.012,0-0.019,0
	c0-0.92,0.066-1.845-0.015-2.758c-0.132-1.504-1.097-2.349-2.522-2.33c-1.418,0.019-2.321,0.907-2.379,2.438
	c-0.053,1.357-0.07,2.721-0.013,4.078c0.041,0.979-0.21,1.669-0.989,2.371c-2.034,1.832-2.026,5.023-0.127,6.985
	c1.877,1.938,5.1,1.981,7.023,0.095c1.967-1.929,2.078-5.134,0.066-6.972c-0.851-0.776-1.129-1.542-1.032-2.589
	C46.665,59.029,46.631,58.587,46.631,58.146z"/>
<path fill-rule="evenodd" clip-rule="evenodd" fill="#FFFFFF" d="M59.077,40.389c-9.967,0-19.868,0-29.83,0
	c-0.045-0.199-0.123-0.384-0.123-0.569c0.005-5.039-0.124-10.083,0.063-15.116c0.27-7.298,6.117-13.475,13.116-14.135
	c7.738-0.729,14.528,3.904,16.382,11.236c0.291,1.153,0.466,2.365,0.479,3.552c0.054,4.679,0.024,9.359,0.018,14.039
	C59.182,39.705,59.118,40.015,59.077,40.389z"/>
<linearGradient id="SVGID_2_" gradientUnits="userSpaceOnUse" x1="39.1553" y1="61.7354" x2="49.1172" y2="61.7354">
	<stop  offset="0" style="stop-color:#DA291C"/>
	<stop  offset="1" style="stop-color:#DA291C"/>
</linearGradient>
<path fill-rule="evenodd" clip-rule="evenodd" fill="url(#SVGID_2_)" d="M46.631,58.146c0,0.44,0.034,0.883-0.006,1.319
	c-0.097,1.047,0.182,1.813,1.032,2.589c2.012,1.838,1.9,5.043-0.066,6.972c-1.924,1.887-5.146,1.843-7.023-0.095
	c-1.899-1.962-1.907-5.153,0.127-6.985c0.779-0.702,1.03-1.393,0.989-2.371c-0.058-1.357-0.04-2.721,0.013-4.078
	c0.058-1.531,0.961-2.42,2.379-2.438c1.426-0.019,2.391,0.826,2.522,2.33c0.081,0.913,0.015,1.838,0.015,2.758
	C46.619,58.146,46.625,58.146,46.631,58.146z"/>
</svg>
