<?xml version="1.0" encoding="utf-8"?>
<!-- Generator: Adobe Illustrator 16.0.0, SVG Export Plug-In . SVG Version: 6.00 Build 0)  -->
<!DOCTYPE svg PUBLIC "-//W3C//DTD SVG 1.1//EN" "http://www.w3.org/Graphics/SVG/1.1/DTD/svg11.dtd">
<svg version="1.1" id="Capa_1" xmlns="http://www.w3.org/2000/svg" xmlns:xlink="http://www.w3.org/1999/xlink" x="0px" y="0px"
	 width="100px" height="82.5px" viewBox="0 0 100 82.5" enable-background="new 0 0 100 82.5" xml:space="preserve">
<path fill-rule="evenodd" clip-rule="evenodd" fill="#DA291C" d="M50.408,77.725c-12.613,0-25.226-0.081-37.836,0.052
	c-3.492,0.037-4.917-1.07-4.896-4.729c0.117-20.104,0.092-40.209,0.018-60.313c-0.012-3.142,1.021-4.486,4.337-4.475
	c25.849,0.084,51.697,0.083,77.545,0c3.336-0.011,4.296,1.353,4.282,4.495c-0.086,20.104-0.111,40.209,0.018,60.313
	c0.023,3.689-1.407,4.745-4.884,4.71C76.131,77.646,63.269,77.725,50.408,77.725z"/>
<path fill-rule="evenodd" clip-rule="evenodd" fill="#FEFEFE" d="M50.412,71.404c-9.87,0-19.742-0.102-29.608,0.055
	c-3.481,0.056-4.955-0.987-4.9-4.691c0.17-11.492,0.147-22.988,0.01-34.48c-0.04-3.36,1.074-4.699,4.529-4.682
	c20.239,0.097,40.479,0.095,60.718,0.002c3.458-0.015,4.563,1.348,4.522,4.699c-0.137,11.367-0.046,22.737-0.055,34.106
	c-0.004,4.606-0.361,4.979-4.857,4.986C70.651,71.414,60.531,71.404,50.412,71.404z"/>
<path fill-rule="evenodd" clip-rule="evenodd" fill="#FCFDFD" d="M31.335,15.242c3.75,0,7.501,0.056,11.25-0.02
	c2.458-0.049,3.822,0.981,3.838,3.477c0.016,2.57-1.463,3.4-3.88,3.378c-7.625-0.067-15.25-0.045-22.875-0.011
	c-2.247,0.01-3.601-0.852-3.653-3.23c-0.054-2.505,1.225-3.627,3.695-3.604C23.584,15.269,27.46,15.241,31.335,15.242z"/>
<path fill-rule="evenodd" clip-rule="evenodd" fill="#FBFBFC" d="M64.036,22.056c-1.267-0.168-2.817,0.399-4.174-0.54
	c-1.344-0.93-1.322-2.331-1.149-3.706c0.196-1.562,1.175-2.456,2.749-2.535c1.491-0.075,2.991,0.016,4.483-0.047
	c2.385-0.101,3.88,0.814,3.92,3.363c0.04,2.52-1.317,3.603-3.771,3.47C65.472,22.027,64.848,22.056,64.036,22.056z"/>
<path fill-rule="evenodd" clip-rule="evenodd" fill="#FBFBFB" d="M79.795,22.057c-1.266-0.174-2.818,0.403-4.171-0.539
	c-1.336-0.931-1.327-2.33-1.149-3.706c0.202-1.557,1.176-2.457,2.75-2.537c1.491-0.076,2.989,0.008,4.482-0.045
	c2.367-0.085,3.838,0.774,3.892,3.371c0.054,2.599-1.336,3.559-3.747,3.46C81.231,22.035,80.607,22.057,79.795,22.057z"/>
<path fill-rule="evenodd" clip-rule="evenodd" fill="#DA291C" d="M77.167,47.118c0,4.876,0.146,9.224-0.047,13.557
	c-0.149,3.345-2.17,5.299-5.551,5.355c-6.245,0.104-12.495,0.114-18.739,0.003c-3.714-0.067-5.703-2.146-5.758-5.927
	c-0.089-6.121-0.092-12.245,0.004-18.365c0.058-3.671,2.142-5.74,5.88-5.829c4.865-0.117,9.735-0.029,14.896-0.029
	c-0.697,2.485-1.628,4.084-4.484,3.913c-3.112-0.188-6.246,0.033-9.366-0.067c-2.233-0.072-3.184,0.821-3.157,3.073
	c0.065,5.497,0.074,10.995-0.003,16.491c-0.034,2.348,1.107,3.015,3.236,2.988c5.246-0.065,10.497-0.119,15.74,0.018
	c2.859,0.074,3.759-1.171,3.583-3.843C73.136,54.459,72.998,50.441,77.167,47.118z"/>
<path fill-rule="evenodd" clip-rule="evenodd" fill="#DA291C" d="M56.66,45.097c2.09,0.431,3.216,2.228,4.537,3.655
	c1.416,1.53,2.175,1.443,3.305-0.316c3.171-4.937,6.508-9.767,9.786-14.634c1.179-1.75,2.55-3.448,4.822-1.803
	c1.99,1.442,1.21,3.248,0.066,4.938c-4.197,6.205-8.346,12.443-12.568,18.631c-2.012,2.949-3.492,3.106-6.009,0.703
	c-2.077-1.984-4.088-4.041-6.09-6.103c-0.948-0.976-1.265-2.158-0.642-3.436C54.409,45.621,55.36,45.108,56.66,45.097z"/>
<g>
	<path fill="#DA291C" d="M29.779,31.34h-3.032c-3.537,0-3.638,0.049-3.638,3.529v3.774c0,3.431-0.05,3.529,3.638,3.529h3.032
		c3.638,0,3.638,0.049,3.638-3.529v-3.774C33.417,31.34,33.417,31.34,29.779,31.34z M29.182,40.091h-1.194v-6.083
		c-0.216,0.154-0.449,0.286-0.697,0.394c-0.249,0.108-0.533,0.204-0.852,0.286v-1.019c0.199-0.065,0.391-0.134,0.577-0.206
		c0.185-0.072,0.368-0.153,0.548-0.242c0.18-0.089,0.362-0.188,0.545-0.298s0.374-0.235,0.569-0.375h0.504V40.091z"/>
	<path fill="#FFFFFF" d="M28.109,32.922c-0.184,0.11-0.365,0.209-0.545,0.298c-0.18,0.089-0.363,0.17-0.548,0.242
		c-0.186,0.072-0.377,0.141-0.577,0.206v1.019c0.319-0.082,0.603-0.177,0.852-0.286c0.249-0.108,0.481-0.239,0.697-0.394v6.083
		h1.194v-7.544h-0.504C28.482,32.687,28.292,32.812,28.109,32.922z"/>
</g>
<g>
	<path fill="#DA291C" d="M29.779,44.173h-3.032c-3.537,0-3.638,0.049-3.638,3.529v3.774c0,3.431-0.05,3.529,3.638,3.529h3.032
		c3.638,0,3.638,0.049,3.638-3.529v-3.774C33.417,44.173,33.417,44.173,29.779,44.173z M30.348,53.383h-4.632v-0.571
		c0-0.233,0.033-0.452,0.098-0.656c0.065-0.204,0.153-0.396,0.263-0.576c0.109-0.18,0.238-0.35,0.386-0.51
		c0.147-0.159,0.305-0.314,0.474-0.463c0.168-0.149,0.339-0.293,0.515-0.433c0.175-0.139,0.346-0.278,0.515-0.419
		c0.158-0.134,0.302-0.265,0.432-0.394c0.13-0.128,0.242-0.262,0.334-0.399s0.165-0.282,0.216-0.435
		c0.051-0.153,0.077-0.318,0.077-0.497c0-0.196-0.03-0.366-0.09-0.512s-0.144-0.268-0.252-0.365
		c-0.108-0.098-0.236-0.172-0.383-0.222c-0.147-0.049-0.309-0.074-0.484-0.074c-0.302,0-0.609,0.07-0.921,0.211
		c-0.312,0.141-0.612,0.352-0.9,0.633v-1.147c0.151-0.113,0.304-0.212,0.458-0.296s0.314-0.154,0.479-0.211
		c0.165-0.057,0.338-0.099,0.52-0.126c0.182-0.027,0.375-0.041,0.582-0.041c0.333,0,0.635,0.044,0.906,0.131
		s0.502,0.216,0.695,0.386c0.192,0.17,0.34,0.382,0.445,0.636c0.105,0.254,0.157,0.545,0.157,0.875c0,0.298-0.037,0.567-0.111,0.805
		c-0.074,0.239-0.178,0.461-0.314,0.667c-0.135,0.206-0.299,0.401-0.491,0.587c-0.192,0.185-0.407,0.375-0.644,0.571
		c-0.199,0.161-0.397,0.318-0.594,0.471s-0.375,0.302-0.533,0.448s-0.286,0.292-0.383,0.438c-0.098,0.146-0.147,0.292-0.147,0.44
		v0.026h3.33V53.383z"/>
	<path fill="#FFFFFF" d="M27.018,52.333c0-0.147,0.049-0.294,0.147-0.44c0.098-0.146,0.226-0.292,0.383-0.438
		s0.335-0.295,0.533-0.448s0.396-0.31,0.594-0.471c0.237-0.196,0.451-0.386,0.644-0.571c0.192-0.186,0.356-0.381,0.491-0.587
		c0.136-0.206,0.24-0.428,0.314-0.667c0.074-0.238,0.111-0.507,0.111-0.805c0-0.33-0.052-0.621-0.157-0.875
		c-0.104-0.254-0.253-0.466-0.445-0.636c-0.192-0.169-0.424-0.298-0.695-0.386s-0.573-0.131-0.906-0.131
		c-0.206,0-0.4,0.014-0.582,0.041c-0.182,0.028-0.355,0.07-0.52,0.126c-0.165,0.057-0.324,0.127-0.479,0.211
		s-0.307,0.183-0.458,0.296v1.147c0.288-0.281,0.588-0.492,0.9-0.633c0.313-0.141,0.62-0.211,0.921-0.211
		c0.175,0,0.336,0.025,0.484,0.074c0.147,0.05,0.275,0.124,0.383,0.222c0.108,0.098,0.192,0.219,0.252,0.365s0.09,0.316,0.09,0.512
		c0,0.178-0.026,0.344-0.077,0.497c-0.052,0.153-0.124,0.297-0.216,0.435s-0.204,0.271-0.334,0.399
		c-0.13,0.129-0.274,0.26-0.432,0.394c-0.168,0.141-0.34,0.281-0.515,0.419c-0.175,0.139-0.347,0.283-0.515,0.433
		c-0.168,0.149-0.326,0.304-0.474,0.463c-0.147,0.16-0.276,0.33-0.386,0.51c-0.11,0.18-0.197,0.372-0.263,0.576
		c-0.065,0.204-0.098,0.423-0.098,0.656v0.571h4.632v-1.024h-3.33V52.333z"/>
</g>
<g>
	<path fill="#DA291C" d="M29.779,56.674h-3.032c-3.537,0-3.638,0.049-3.638,3.529v3.774c0,3.432-0.05,3.529,3.638,3.529h3.032
		c3.638,0,3.638,0.049,3.638-3.529v-3.774C33.417,56.674,33.417,56.674,29.779,56.674z M29.561,65.397
		c-0.498,0.407-1.153,0.61-1.966,0.61c-0.731,0-1.314-0.132-1.75-0.396v-1.122c0.48,0.381,1.022,0.571,1.626,0.571
		c0.491,0,0.883-0.112,1.176-0.334c0.293-0.223,0.44-0.525,0.44-0.906c0-0.837-0.64-1.256-1.919-1.256h-0.571v-0.958h0.545
		c1.136,0,1.704-0.394,1.704-1.184c0-0.727-0.442-1.091-1.328-1.091c-0.494,0-0.959,0.177-1.395,0.53v-1.061
		c0.5-0.281,1.092-0.422,1.775-0.422c0.655,0,1.18,0.165,1.575,0.494c0.395,0.329,0.592,0.751,0.592,1.266
		c0,0.971-0.494,1.595-1.482,1.873v0.021c0.532,0.052,0.952,0.238,1.261,0.559c0.309,0.321,0.463,0.721,0.463,1.202
		C30.307,64.456,30.058,64.99,29.561,65.397z"/>
	<path fill="#FFFFFF" d="M28.583,62.034v-0.021c0.988-0.278,1.482-0.902,1.482-1.873c0-0.515-0.197-0.937-0.592-1.266
		c-0.395-0.33-0.919-0.494-1.575-0.494c-0.683,0-1.275,0.141-1.775,0.422v1.061c0.436-0.354,0.9-0.53,1.395-0.53
		c0.885,0,1.328,0.364,1.328,1.091c0,0.79-0.568,1.184-1.704,1.184h-0.545v0.958h0.571c1.28,0,1.919,0.418,1.919,1.256
		c0,0.381-0.146,0.683-0.44,0.906c-0.293,0.223-0.685,0.334-1.176,0.334c-0.604,0-1.146-0.19-1.626-0.571v1.122
		c0.436,0.265,1.019,0.396,1.75,0.396c0.813,0,1.468-0.203,1.966-0.61s0.746-0.941,0.746-1.603c0-0.48-0.154-0.881-0.463-1.202
		C29.535,62.271,29.115,62.085,28.583,62.034z"/>
</g>
</svg>
